<?xml version="1.0" standalone="no"?>
<!DOCTYPE svg PUBLIC "-//W3C//DTD SVG 20010904//EN"
 "http://www.w3.org/TR/2001/REC-SVG-20010904/DTD/svg10.dtd">
<svg version="1.0" xmlns="http://www.w3.org/2000/svg"
 width="110.000000pt" height="110.000000pt" viewBox="0 0 110.000000 110.000000"
 preserveAspectRatio="xMidYMid meet">
<metadata>
Created by potrace 1.14, written by Peter Selinger 2001-2017
</metadata>
<g transform="translate(0.000000,110.000000) scale(0.100000,-0.100000)"
fill="#000000" stroke="none">
<path d="M0 550 l0 -550 550 0 550 0 0 550 0 550 -550 0 -550 0 0 -550z m506
389 l39 -26 39 26 c38 25 45 26 213 29 l173 3 30 -30 c23 -23 30 -38 30 -70
l0 -40 -179 -3 c-164 -3 -182 -5 -208 -24 -35 -27 -50 -82 -31 -121 24 -51 66
-63 223 -63 l139 0 -22 -22 c-21 -22 -31 -23 -160 -23 -125 0 -140 2 -174 23
-45 28 -62 73 -56 148 4 43 11 61 33 84 40 42 79 50 248 50 115 0 148 3 145
13 -11 31 -52 38 -193 34 -150 -4 -178 -12 -224 -61 l-24 -26 -38 35 c-21 19
-51 38 -66 42 -16 5 -95 8 -176 8 -120 0 -149 -3 -157 -15 -5 -8 -10 -18 -10
-22 0 -5 66 -8 148 -8 169 0 207 -8 248 -51 27 -28 29 -36 29 -104 0 -68 -2
-76 -29 -104 -40 -41 -80 -51 -213 -51 -105 0 -114 2 -140 25 l-28 24 140 1
c158 0 199 12 224 64 12 26 12 36 0 70 -23 67 -53 76 -251 76 l-168 0 0 41 c0
32 6 47 30 70 l30 30 173 -3 c168 -3 175 -4 213 -29z m62 -361 c30 -30 -4 -77
-41 -57 -29 17 -15 69 18 69 6 0 16 -5 23 -12z m-112 -67 c98 -44 100 -210 4
-266 -30 -17 -56 -20 -197 -24 -90 -1 -163 -6 -163 -10 0 -25 32 -31 178 -31
166 0 197 7 242 55 l23 24 35 -30 c19 -17 45 -35 59 -40 37 -14 326 -12 341 3
7 7 12 15 12 19 0 4 -73 9 -162 11 -131 3 -169 7 -196 21 -47 26 -72 72 -72
135 0 119 51 151 236 152 111 0 124 -2 150 -22 l29 -23 -157 -5 c-147 -5 -158
-6 -182 -29 -14 -13 -28 -36 -31 -51 -8 -35 16 -95 43 -109 13 -7 91 -11 201
-11 l181 0 0 -41 c0 -94 -32 -109 -228 -109 -143 0 -151 1 -204 28 l-55 27
-54 -28 c-53 -28 -54 -28 -217 -25 l-164 3 -24 28 c-18 21 -24 40 -24 73 l0
44 180 0 c202 0 220 5 240 65 14 42 5 77 -27 107 -23 22 -34 23 -178 28 -155
5 -170 10 -120 38 12 7 69 11 140 11 96 1 128 -3 161 -18z"/>
</g>
</svg>
